<?xml version="1.0" encoding="UTF-8" standalone="no"?>
<svg
   xmlns:dc="http://purl.org/dc/elements/1.1/"
   xmlns:cc="http://creativecommons.org/ns#"
   xmlns:rdf="http://www.w3.org/1999/02/22-rdf-syntax-ns#"
   xmlns:svg="http://www.w3.org/2000/svg"
   xmlns="http://www.w3.org/2000/svg"
   xml:space="preserve"
   style="enable-background:new 0 0 578 578;"
   viewBox="0 0 578 578"
   y="0px"
   x="0px"
   id="Layer_1"
   version="1.1"><metadata
     id="metadata13"><rdf:RDF><cc:Work
         rdf:about=""><dc:format>image/svg+xml</dc:format><dc:type
           rdf:resource="http://purl.org/dc/dcmitype/StillImage" /><dc:title>Browser-columns-interface-layout-window_21</dc:title></cc:Work></rdf:RDF></metadata><defs
     id="defs11" /><title
     id="title3">Browser-columns-interface-layout-window_21</title><path
     d="m 376.2,392.75 -28.8,-25.1 c 27.6,-36.6 20.2,-88.7 -16.4,-116.2 -36.6,-27.5 -88.7,-20.2 -116.2,16.4 -27.5,36.6 -20.2,88.7 16.4,116.2 30.5,23 72.7,22.1 102.3,-2 l 29.5,25.8 c 4.2,3.6 10.5,3.2 14.1,-0.9 3.7,-4.3 3.2,-10.6 -0.9,-14.2 l 0,0 z m -157.8,-74.9 c 0,-34.7 28.1,-62.8 62.8,-62.8 34.7,0 62.8,28.1 62.8,62.8 0,34.7 -28.1,62.8 -62.8,62.8 0,0 0,0 0,0 -34.6,0 -62.7,-28.1 -62.8,-62.8 z m 313.1,-231.6 -0.6,-0.5 -0.1,-0.1 c -5.6,-4.9 -12.7,-7.7 -20.1,-8.1 -0.9,-0.1 -1.9,-0.1 -2.8,-0.1 l -437.8,0 c -0.9,0 -1.9,0 -2.8,0.1 -7.4,0.4 -14.5,3.3 -20.1,8.1 l -0.1,0.1 -0.5,0.5 c -8,6.9 -12.6,16.8 -12.6,27.3 l 0,351 c 0.1,19.9 16.2,36 36.1,36 l 437.8,0 c 19.9,0 36,-16.1 36.1,-36 l 0,-351 c 0,-10.5 -4.6,-20.4 -12.5,-27.3 z m -322,42.6 c 0,7.7 -6.3,14 -14,14 -7.7,0 -14,-6.3 -14,-14 0,-7.7 6.3,-14 14,-14 7.7,0 13.9,6.3 14,14 l 0,0 z m -46.3,0 c 0,7.7 -6.3,14 -14,14 -7.7,0 -14,-6.3 -14,-14 0,-7.7 6.3,-14 14,-14 7.7,0 14,6.3 14,14 l 0,0 z m -46.2,0 c 0,7.7 -6.3,14 -14,14 -7.7,0 -14,-6.3 -14,-14 0,-7.7 6.3,-14 14,-14 7.7,0 13.9,6.3 14,14 l 0,0 z m 390.9,351.7 -437.8,0 c -8.8,0 -16,-7.2 -16.1,-16 l 0,-284.5 470,0 0,284.5 c 0,8.9 -7.2,16 -16.1,16 z"
     id="path7" /></svg>